<svg width="564" height="483" viewBox="0 0 564 483" fill="none" xmlns="http://www.w3.org/2000/svg">
<mask id="mask0" mask-type="alpha" maskUnits="userSpaceOnUse" x="0" y="0" width="564" height="483">
<path d="M564 227.5C564 391.805 445.805 482.5 281.5 482.5C117.195 482.5 0 391.805 0 227.5C0 63.1953 117.195 0 281.5 0C445.805 0 564 63.1953 564 227.5Z" fill="#C4C4C4"/>
</mask>
<g mask="url(#mask0)">
<path d="M564 227.5C564 391.805 445.805 482.5 281.5 482.5C117.195 482.5 0 391.805 0 227.5C0 63.1953 117.195 0 281.5 0C445.805 0 564 63.1953 564 227.5Z" fill="#FFB1B6"/>
<path d="M446.166 237.722C446.159 237.772 446.151 237.824 446.144 237.878C446.066 238.414 445.955 239.188 445.816 240.167C445.538 242.125 445.147 244.902 444.681 248.225C443.748 254.871 442.515 263.7 441.285 272.518C440.056 281.337 438.829 290.144 437.91 296.747C437.451 300.048 437.068 302.798 436.8 304.723L436.49 306.957L436.442 307.299L395.108 322.218C398.323 319.24 400.666 315.394 401.818 311.094L416.522 256.216C420.029 243.129 433.067 235.145 446.166 237.722Z" fill="#DF9380" stroke="#BC715E" stroke-width="1.5"/>
<path d="M447.432 238.369C447.432 238.369 447.432 238.369 447.432 238.369C451.055 224.851 464.846 216.778 478.372 220.166L468.377 293.947L425.228 305.07C428.85 302.007 431.483 297.893 432.727 293.248L447.432 238.369Z" fill="#EAAC9D" stroke="#BC715E" stroke-width="1.5"/>
<path d="M354.678 329.149L354.678 329.149L361.131 305.067C366.096 286.54 355.119 267.497 336.609 262.501L336.609 262.501C331.181 261.036 325.564 264.241 324.11 269.664L302.377 350.773C297.59 368.639 295.166 387.055 295.166 405.55V480.606C295.166 480.788 295.313 480.936 295.495 480.936H378.014C378.195 480.936 378.343 480.788 378.343 480.606V449.401C378.343 432.99 384.894 417.258 396.542 405.697L495.793 307.186C501.527 301.495 505.65 294.386 507.741 286.583L526.988 214.744C527.976 211.055 526.096 207.17 522.575 205.752M354.678 329.149L522.575 205.752M354.678 329.149C352.68 336.606 360.696 342.757 367.382 338.897L452.723 289.625C458.103 286.519 462.029 281.403 463.637 275.403L476.119 228.816C481.43 208.999 502.923 197.841 522.575 205.752M354.678 329.149L522.855 205.057L522.575 205.752" fill="#FFCBBE" stroke="#BC715E" stroke-width="1.5"/>
<path d="M161.182 311.094C162.334 315.394 164.677 319.24 167.892 322.218L126.558 307.299L126.51 306.957L126.199 304.723C125.932 302.798 125.549 300.048 125.089 296.747C124.171 290.144 122.944 281.337 121.714 272.518C120.485 263.7 119.251 254.871 118.319 248.225C117.853 244.902 117.462 242.125 117.184 240.167C117.045 239.188 116.934 238.414 116.856 237.878C116.848 237.824 116.841 237.772 116.834 237.722C129.933 235.145 142.97 243.129 146.477 256.216L161.182 311.094Z" fill="#DF9380" stroke="#BC715E" stroke-width="1.5"/>
<path d="M94.6224 293.947L84.6281 220.166C98.1535 216.778 111.945 224.851 115.568 238.369C115.568 238.369 115.568 238.369 115.568 238.369L130.272 293.248C131.517 297.893 134.15 302.007 137.772 305.07L94.6224 293.947Z" fill="#EAAC9D" stroke="#BC715E" stroke-width="1.5"/>
<path d="M36.0118 214.744C36.0118 214.744 36.0118 214.744 36.0118 214.744L55.2604 286.584C57.3512 294.387 61.4741 301.496 67.2076 307.187L166.459 405.697C178.107 417.258 184.658 432.99 184.658 449.401V480.606C184.658 480.788 184.806 480.936 184.987 480.936H267.505C267.687 480.936 267.834 480.788 267.834 480.606V405.55C267.834 387.055 265.41 368.639 260.623 350.773L238.89 269.664C237.436 264.241 231.819 261.036 226.391 262.501L226.22 261.869L226.391 262.501C207.881 267.497 196.904 286.54 201.868 305.067L208.322 329.149C210.32 336.606 202.304 342.757 195.618 338.897L110.277 289.625C104.897 286.519 100.971 281.403 99.363 275.403L86.8798 228.816C81.5699 208.999 60.0768 197.841 40.4254 205.752L36.0118 214.744ZM36.0118 214.744C35.0236 211.055 36.9044 207.17 40.4253 205.752L36.0118 214.744Z" fill="#FFCBBE" stroke="#BC715E" stroke-width="1.5"/>
<path d="M78.1789 106.25L68.8937 102.87C66.4549 101.983 63.758 103.24 62.8704 105.679C61.9826 108.118 63.2403 110.815 65.6792 111.702L74.9643 115.082C77.4032 115.97 80.1001 114.712 80.9876 112.273C81.8754 109.835 80.6177 107.138 78.1789 106.25V106.25Z" fill="#FFDB87"/>
<path d="M68.9299 133.691L59.0498 133.559C56.4545 133.524 54.3225 135.6 54.2879 138.195C54.253 140.791 56.3289 142.923 58.924 142.957L68.8041 143.089C71.3993 143.124 73.5314 141.048 73.566 138.453C73.601 135.858 71.5251 133.726 68.9299 133.691V133.691Z" fill="#FFDB87"/>
<path d="M74.0207 162.759L64.5841 165.689C62.1053 166.458 60.7197 169.092 61.4894 171.57C62.2589 174.049 64.8924 175.435 67.3709 174.665L76.8076 171.735C79.2864 170.966 80.6719 168.332 79.9022 165.854C79.133 163.375 76.4995 161.99 74.0207 162.759V162.759Z" fill="#FFDB87"/>
<path d="M472.9 108.38L482.37 105.001C484.857 104.113 487.608 105.37 488.513 107.809C489.418 110.248 488.136 112.945 485.648 113.833L476.178 117.212C473.691 118.1 470.941 116.842 470.035 114.403C469.13 111.965 470.413 109.268 472.9 108.38V108.38Z" fill="#FFDB87"/>
<path d="M482.333 135.822L492.41 135.689C495.056 135.654 497.231 137.73 497.266 140.325C497.302 142.921 495.185 145.053 492.538 145.087L482.461 145.219C479.814 145.254 477.64 143.179 477.605 140.583C477.569 137.988 479.686 135.856 482.333 135.822V135.822Z" fill="#FFDB87"/>
<path d="M477.141 164.889L486.765 167.819C489.293 168.589 490.706 171.222 489.921 173.701C489.136 176.179 486.451 177.565 483.923 176.795L474.299 173.865C471.77 173.096 470.357 170.462 471.142 167.984C471.927 165.505 474.613 164.12 477.141 164.889V164.889Z" fill="#FFDB87"/>
<path d="M110.191 173.898L111.69 167.903C117.899 171.258 124.001 172.935 129.996 172.935C134.278 172.935 137.917 172.078 140.915 170.365C143.984 168.581 145.518 165.727 145.518 161.801C145.518 158.304 144.233 155.129 141.664 152.274C139.095 149.348 135.991 146.779 132.351 144.566C128.711 142.354 125.071 140.106 121.432 137.822C117.792 135.467 114.687 132.612 112.118 129.258C109.549 125.832 108.264 122.05 108.264 117.911C108.264 112.843 110.084 108.24 113.724 104.101C117.364 99.8903 121.753 97.785 126.891 97.785C130.816 97.785 135.17 98.57 139.951 100.14C144.804 101.71 148.872 103.28 152.155 104.85L150.871 109.132C142.735 106.349 135.884 104.957 130.317 104.957C126.891 104.957 123.965 106.064 121.539 108.276C119.112 110.488 117.899 113.343 117.899 116.84C117.899 119.481 118.577 121.871 119.933 124.012C121.289 126.153 123.037 128.009 125.178 129.579C127.391 131.149 129.817 132.684 132.458 134.182C135.17 135.681 137.846 137.287 140.487 139C143.127 140.712 145.518 142.568 147.659 144.566C149.872 146.564 151.656 149.098 153.012 152.167C154.368 155.164 155.046 158.554 155.046 162.337C155.046 167.689 153.333 172.078 149.907 175.504C146.482 178.858 142.021 180.535 136.526 180.535C131.816 180.535 126.784 179.893 121.432 178.608C116.151 177.252 112.404 175.682 110.191 173.898ZM175.321 133.754L173.18 128.294C175.036 126.439 177.391 124.976 180.245 123.905C183.1 122.764 185.919 122.193 188.702 122.193C200.763 122.193 206.794 132.612 206.794 153.451C206.794 156.306 206.616 160.517 206.259 166.083C205.973 171.65 205.831 175.825 205.831 178.608C205.26 180.821 204.153 181.927 202.512 181.927C201.227 181.927 200.05 181.285 198.979 180C197.909 178.715 197.374 177.288 197.374 175.718C197.374 175.218 197.409 174.862 197.481 174.647C193.056 178.929 188.346 181.071 183.35 181.071C179.567 181.071 176.249 179.715 173.394 177.003C170.611 174.219 169.219 170.865 169.219 166.94C169.219 160.303 171.788 154.308 176.927 148.955C182.137 143.603 188.024 140.926 194.59 140.926C194.876 140.926 195.161 140.962 195.447 141.034C195.732 141.034 196.053 141.069 196.41 141.141C196.838 141.212 197.159 141.248 197.374 141.248C196.803 132.898 193.484 128.723 187.418 128.723C183.849 128.723 179.817 130.4 175.321 133.754ZM197.695 167.261C197.837 162.265 197.909 158.483 197.909 155.914C197.909 153.773 197.837 150.775 197.695 146.921H196.838C191.771 146.993 187.132 148.884 182.922 152.595C178.782 156.306 176.713 160.802 176.713 166.083C176.713 168.367 177.391 170.187 178.747 171.543C180.174 172.899 181.887 173.577 183.885 173.577C187.025 173.577 191.628 171.472 197.695 167.261ZM234.135 211.687L227.498 207.94C230.424 202.873 235.598 193.239 243.02 179.037C237.239 173.898 232.814 166.119 229.746 155.699C226.677 145.28 224.821 134.86 224.179 124.441L230.388 124.762C230.745 126.475 231.494 130.4 232.636 136.537C233.849 142.604 234.813 147.1 235.526 150.026C236.24 152.952 237.489 156.627 239.273 161.052C241.129 165.405 243.234 169.081 245.589 172.078C255.509 153.023 260.469 137.394 260.469 125.19V124.012C264.18 124.583 266.964 125.261 268.819 126.046C267.677 133.54 265.893 141.176 263.467 148.955C261.04 156.734 258.007 164.585 254.367 172.506C250.728 180.357 247.48 186.958 244.626 192.311C241.842 197.663 238.345 204.122 234.135 211.687Z" fill="#BA434E"/>
<path d="M317.142 103.03L323.351 101.746C324.635 111.809 325.421 125.797 325.706 143.71C326.063 161.552 326.42 173.363 326.776 179.144C326.134 181.356 324.885 182.462 323.03 182.462C321.745 182.462 320.496 181.927 319.283 180.856C318.141 179.786 317.427 178.501 317.142 177.003C317.213 174.433 317.249 170.151 317.249 164.156V143.067C315.679 143.139 313.467 143.317 310.612 143.603C307.828 143.817 305.259 143.995 302.904 144.138C300.62 144.281 298.444 144.352 296.374 144.352C294.519 144.352 293.163 144.316 292.306 144.245C292.449 148.598 292.699 154.772 293.055 162.765C293.412 170.687 293.662 176.146 293.805 179.144C293.163 181.356 291.914 182.462 290.058 182.462C288.773 182.462 287.525 181.927 286.311 180.856C285.169 179.786 284.456 178.501 284.17 177.003C284.384 170.865 284.563 158.947 284.706 141.248C284.92 123.549 285.276 110.381 285.776 101.746L290.593 102.816C290.593 103.03 290.593 103.387 290.593 103.887C290.665 104.315 290.7 104.672 290.7 104.957C291.628 122.514 292.163 133.504 292.306 137.929C294.733 137.715 297.302 137.501 300.014 137.287C302.797 137.001 305.83 136.716 309.113 136.43C312.467 136.073 315.072 135.824 316.928 135.681C316.999 135.681 317.035 135.324 317.035 134.61C317.035 133.897 317.035 131.006 317.035 125.939C317.106 120.872 317.142 113.236 317.142 103.03ZM389.658 169.616L390.729 174.326C387.588 175.468 382.914 176.753 376.705 178.18C370.567 179.536 366 180.214 363.002 180.214C359.934 180.214 357.257 179.215 354.974 177.217C352.69 175.147 350.977 172.542 349.835 169.402C348.693 166.19 347.837 163.05 347.266 159.982C346.766 156.841 346.517 153.773 346.517 150.775C346.517 132.933 354.581 124.012 370.71 124.012C374.564 124.012 377.954 125.261 380.88 127.759C383.806 130.186 385.269 133.362 385.269 137.287C385.269 139.428 384.662 141.319 383.449 142.96C382.307 144.602 380.88 145.922 379.167 146.921C377.526 147.849 375.385 148.705 372.744 149.491C370.175 150.276 367.891 150.847 365.893 151.203C363.895 151.56 361.504 151.953 358.72 152.381C355.937 152.809 354.01 153.13 352.94 153.344C353.011 155.414 353.118 157.234 353.261 158.804C353.475 160.374 353.832 162.087 354.331 163.942C354.902 165.727 355.616 167.225 356.472 168.439C357.4 169.58 358.649 170.544 360.219 171.329C361.789 172.114 363.645 172.506 365.786 172.506C368.355 172.506 371.495 172.292 375.206 171.864C378.917 171.365 382.2 170.865 385.055 170.365C387.981 169.866 389.515 169.616 389.658 169.616ZM353.368 146.707C363.074 143.924 371.031 140.998 377.24 137.929C376.741 135.574 376.063 133.861 375.206 132.791C374.35 131.72 373.065 131.185 371.352 131.185C366.999 131.185 363.038 132.684 359.47 135.681C355.973 138.678 353.939 142.354 353.368 146.707ZM413.68 211.687L407.043 207.94C409.969 202.873 415.143 193.239 422.566 179.037C416.785 173.898 412.36 166.119 409.291 155.699C406.222 145.28 404.367 134.86 403.725 124.441L409.934 124.762C410.29 126.475 411.04 130.4 412.182 136.537C413.395 142.604 414.358 147.1 415.072 150.026C415.786 152.952 417.035 156.627 418.819 161.052C420.674 165.405 422.78 169.081 425.135 172.078C435.055 153.023 440.015 137.394 440.015 125.19V124.012C443.726 124.583 446.509 125.261 448.365 126.046C447.223 133.54 445.439 141.176 443.012 148.955C440.586 156.734 437.553 164.585 433.913 172.506C430.273 180.357 427.026 186.958 424.171 192.311C421.388 197.663 417.891 204.122 413.68 211.687Z" fill="#FFFCFC"/>
<path d="M562 227.5C562 309.136 532.657 372.309 483.058 415.1C433.421 457.924 363.301 480.5 281.5 480.5C199.699 480.5 129.832 457.924 80.4459 415.103C31.0971 372.314 2 309.142 2 227.5C2 145.883 31.0719 89.655 80.314 53.7518C129.666 17.7687 199.551 2 281.5 2C363.449 2 433.587 17.7686 483.19 53.7546C532.683 89.6606 562 145.889 562 227.5Z" stroke="#BA434E" stroke-width="4"/>
</g>
</svg>
